<?xml version="1.0" standalone="no"?><!DOCTYPE svg PUBLIC "-//W3C//DTD SVG 1.1//EN" "http://www.w3.org/Graphics/SVG/1.1/DTD/svg11.dtd"><svg t="1626405224091" class="icon" viewBox="0 0 1024 1024" version="1.1" xmlns="http://www.w3.org/2000/svg" p-id="3173" width="24" height="24" xmlns:xlink="http://www.w3.org/1999/xlink"><defs><style type="text/css"></style></defs><path d="M514.3552 803.9424c-7.7824 9.8304 7.8848 7.7824 0 0z" p-id="3174" fill="#406080"></path><path d="M512 137.216c-150.1184 0-272.9984 122.88-272.9984 272.9984 0 148.1728 218.8288 329.4208 275.3536 393.8304 54.5792-64.3072 270.5408-241.664 270.5408-393.8304C784.9984 260.096 662.1184 137.216 512 137.216z m0 373.9648c-69.7344 0-125.2352-55.5008-125.2352-125.2352S442.2656 260.7104 512 260.7104s125.2352 55.5008 125.2352 125.2352S581.7344 511.1808 512 511.1808z" p-id="3175" fill="#406080"></path><path d="M512 886.784c-95.4368 0-185.5488-10.8544-253.6448-30.4128-34.7136-10.0352-62.464-21.9136-82.3296-35.5328-32.3584-22.016-39.1168-45.4656-39.1168-61.2352 0-27.136 18.2272-50.7904 54.0672-70.3488 28.16-15.36 66.56-28.0576 114.2784-37.7856 14.5408-2.9696 28.672 6.3488 31.6416 20.8896 2.9696 14.5408-6.3488 28.672-20.8896 31.6416C212.7872 725.0944 190.464 753.664 190.464 759.6032c0 4.5056 14.0288 25.3952 82.6368 45.1584 63.3856 18.3296 148.2752 28.3648 238.7968 28.3648 90.624 0 175.4112-10.0352 238.7968-28.3648 68.608-19.7632 82.6368-40.6528 82.6368-45.1584 0-5.632-20.6848-32.6656-116.3264-53.6576-14.4384-3.1744-23.6544-17.5104-20.48-31.9488 3.1744-14.4384 17.5104-23.6544 31.9488-20.48 103.7312 22.7328 158.5152 59.4944 158.5152 106.0864 0 15.7696-6.7584 39.2192-39.1168 61.2352-19.8656 13.5168-47.616 25.4976-82.3296 35.5328C697.5488 876.032 607.4368 886.784 512 886.784z" p-id="3176" fill="#406080"></path></svg>